<svg xmlns="http://www.w3.org/2000/svg" width="20" height="20" viewBox="0 0 20 20"><g><g><path d="M19.844 19.822a.584.584 0 0 1-.42.178.603.603 0 0 1-.422-.178l-4.86-4.86a8.49 8.49 0 0 1-5.59 2.093c-4.7 0-8.527-3.827-8.527-8.528C.025 3.827 3.847 0 8.55 0c4.7 0 8.527 3.824 8.527 8.528 0 2.138-.79 4.094-2.093 5.592l4.86 4.86a.6.6 0 0 1 0 .843zm-11.297-3.96c4.044 0 7.33-3.295 7.33-7.335s-3.286-7.33-7.33-7.33c-4.04 0-7.33 3.286-7.33 7.33 0 4.045 3.29 7.335 7.33 7.335z"/><path fill="#fff" d="M19.844 19.822a.584.584 0 0 1-.42.178.603.603 0 0 1-.422-.178l-4.86-4.86a8.49 8.49 0 0 1-5.59 2.093c-4.7 0-8.527-3.827-8.527-8.528C.025 3.827 3.847 0 8.55 0c4.7 0 8.527 3.824 8.527 8.528 0 2.138-.79 4.094-2.093 5.592l4.86 4.86a.6.6 0 0 1 0 .843zm-11.297-3.96c4.044 0 7.33-3.295 7.33-7.335s-3.286-7.33-7.33-7.33c-4.04 0-7.33 3.286-7.33 7.33 0 4.045 3.29 7.335 7.33 7.335z"/></g></g></svg>